<svg width="60" height="60" viewBox="0 0 60 60" fill="none" xmlns="http://www.w3.org/2000/svg">
<g clip-path="url(#clip0_2211_10276)">
<path fill-rule="evenodd" clip-rule="evenodd" d="M45 7.5C46.9891 7.5 48.8968 8.29018 50.3033 9.6967C51.7098 11.1032 52.5 13.0109 52.5 15V45C52.5 46.9891 51.7098 48.8968 50.3033 50.3033C48.8968 51.7098 46.9891 52.5 45 52.5H15C13.0109 52.5 11.1032 51.7098 9.6967 50.3033C8.29018 48.8968 7.5 46.9891 7.5 45V15C7.5 13.0109 8.29018 11.1032 9.6967 9.6967C11.1032 8.29018 13.0109 7.5 15 7.5H45ZM45 12.5H15C14.337 12.5 13.7011 12.7634 13.2322 13.2322C12.7634 13.7011 12.5 14.337 12.5 15V45C12.5 45.663 12.7634 46.2989 13.2322 46.7678C13.7011 47.2366 14.337 47.5 15 47.5H45C45.663 47.5 46.2989 47.2366 46.7678 46.7678C47.2366 46.2989 47.5 45.663 47.5 45V15C47.5 14.337 47.2366 13.7011 46.7678 13.2322C46.2989 12.7634 45.663 12.5 45 12.5ZM30 15C35.2 15 39.29 16.12 41.57 16.925C43.7975 17.7175 44.8825 19.905 44.6375 21.975L44.5775 22.3625L42.7725 31.3875C42.2825 33.83 39.6925 35.0125 37.575 34.1675C35.9625 33.5225 33.325 32.6575 30.7 32.5175L29.95 32.5C27.1175 32.5125 24.17 33.47 22.425 34.1675C20.4125 34.97 17.975 33.9425 17.3175 31.7425L17.2275 31.385L15.4225 22.3625C14.9875 20.1825 16.0625 17.765 18.43 16.9275C22.1511 15.6401 26.0625 14.9885 30 15ZM30 20C25.7025 20 22.3 20.8875 20.36 21.55L21.86 29.0425C23.5675 28.4425 25.9175 27.7775 28.42 27.5675L30.265 23.8825C30.4054 23.5786 30.6054 23.3059 30.8532 23.0807C31.101 22.8556 31.3915 22.6825 31.7074 22.5717C32.0234 22.4609 32.3584 22.4147 32.6925 22.4359C33.0266 22.457 33.3531 22.5451 33.6526 22.6948C33.952 22.8446 34.2184 23.0529 34.4358 23.3075C34.6532 23.5622 34.8172 23.8578 34.9182 24.1771C35.0191 24.4963 35.055 24.8325 35.0235 25.1659C34.992 25.4992 34.8939 25.8228 34.735 26.1175L33.855 27.88C35.48 28.185 36.965 28.63 38.1425 29.0425L39.6425 21.55C36.5337 20.5137 33.277 19.9902 30 20Z" fill="#09244B"/>
</g>
<defs>
<clipPath id="clip0_2211_10276">
<rect width="60" height="60" fill="white"/>
</clipPath>
</defs>
</svg>
