<svg width="60" height="60" viewBox="0 0 60 60" fill="none" xmlns="http://www.w3.org/2000/svg">
<g clip-path="url(#clip0_2171_10114)">
<path fill-rule="evenodd" clip-rule="evenodd" d="M35.0875 7.02252C36.0125 6.35752 37.3125 6.04751 38.59 6.51501C41.3059 7.50997 43.8284 8.96916 46.045 10.8275C47.0875 11.7025 47.47 12.98 47.355 14.11C47.1675 15.9925 47.4975 17.81 48.405 19.375C49.205 20.7675 50.41 21.8675 51.88 22.6425L52.4425 22.9175C53.4775 23.385 54.3975 24.3575 54.63 25.7C55.1237 28.5454 55.1237 31.4546 54.63 34.3C54.4225 35.51 53.655 36.4175 52.7475 36.9275L52.4425 37.085C50.7175 37.86 49.3075 39.06 48.4025 40.625C47.4975 42.1925 47.1675 44.0075 47.355 45.89C47.4675 47.02 47.0875 48.3 46.045 49.1725C43.8284 51.0309 41.3059 52.4901 38.59 53.485C38.0095 53.6927 37.387 53.755 36.7769 53.6665C36.1667 53.578 35.5876 53.3415 35.09 52.9775C33.55 51.875 31.8075 51.25 30 51.25C28.1925 51.25 26.45 51.8725 24.9125 52.9775C24.4146 53.3419 23.835 53.5787 23.2244 53.6671C22.6138 53.7556 21.9908 53.6931 21.41 53.485C18.694 52.4901 16.1714 51.0309 13.9549 49.1725C13.4855 48.7737 13.1207 48.2661 12.8924 47.6939C12.6641 47.1218 12.5791 46.5025 12.6449 45.89C12.8324 44.0075 12.4999 42.19 11.5949 40.625C10.7707 39.2277 9.56527 38.0943 8.11995 37.3575L7.55745 37.0825C6.99331 36.8326 6.49897 36.4484 6.11764 35.9633C5.73631 35.4783 5.4796 34.9072 5.36994 34.3C4.87603 31.4546 4.87603 28.5454 5.36994 25.7C5.57744 24.49 6.34495 23.5825 7.25245 23.0725L7.55745 22.9175C9.28245 22.14 10.6924 20.9425 11.5974 19.375C12.4999 17.81 12.8324 15.9925 12.6449 14.11C12.5791 13.4975 12.6641 12.8782 12.8924 12.3061C13.1207 11.734 13.4855 11.2264 13.9549 10.8275C16.1715 8.96916 18.694 7.50997 21.41 6.51501C21.9905 6.3076 22.6129 6.24541 23.223 6.33387C23.8331 6.42233 24.4123 6.65876 24.91 7.02252C26.4475 8.12752 28.19 8.75002 30 8.75002C31.81 8.75002 33.55 8.12752 35.0875 7.02252ZM37.48 11.445C35.315 12.87 32.7625 13.75 30 13.75C27.2375 13.75 24.685 12.8675 22.52 11.445C20.7795 12.1475 19.1468 13.0918 17.6699 14.25C17.8199 16.8325 17.3074 19.4825 15.9274 21.875C14.5449 24.265 12.5074 26.0325 10.1949 27.195C9.93441 29.0543 9.93441 30.9408 10.1949 32.8C12.5074 33.9625 14.5449 35.73 15.9274 38.125C17.3074 40.5125 17.8199 43.1625 17.6699 45.745C19.1467 46.9041 20.7794 47.8492 22.52 48.5525C24.685 47.1275 27.2375 46.2475 30 46.2475C32.7625 46.2475 35.315 47.13 37.48 48.5525C39.2203 47.8499 40.853 46.9056 42.33 45.7475C42.18 43.1625 42.6925 40.5125 44.0725 38.1225C45.4525 35.73 47.4925 33.9625 49.805 32.7975C50.0654 30.9399 50.0654 29.0551 49.805 27.1975C47.4925 26.0325 45.455 24.265 44.0725 21.8725C42.6925 19.4825 42.18 16.8325 42.33 14.2475C40.8531 13.0893 39.2204 12.1475 37.48 11.445ZM30 20C32.6521 20 35.1957 21.0536 37.071 22.9289C38.9464 24.8043 40 27.3479 40 30C40 32.6522 38.9464 35.1957 37.071 37.0711C35.1957 38.9464 32.6521 40 30 40C27.3478 40 24.8042 38.9464 22.9289 37.0711C21.0535 35.1957 20 32.6522 20 30C20 27.3479 21.0535 24.8043 22.9289 22.9289C24.8042 21.0536 27.3478 20 30 20ZM30 25C28.6739 25 27.4021 25.5268 26.4644 26.4645C25.5267 27.4022 25 28.6739 25 30C25 31.3261 25.5267 32.5979 26.4644 33.5356C27.4021 34.4732 28.6739 35 30 35C31.326 35 32.5978 34.4732 33.5355 33.5356C34.4732 32.5979 35 31.3261 35 30C35 28.6739 34.4732 27.4022 33.5355 26.4645C32.5978 25.5268 31.326 25 30 25Z" fill="#09244B"/>
</g>
<defs>
<clipPath id="clip0_2171_10114">
<rect width="60" height="60" fill="white"/>
</clipPath>
</defs>
</svg>
