<svg width="60" height="60" viewBox="0 0 60 60" fill="none" xmlns="http://www.w3.org/2000/svg">
<g clip-path="url(#clip0_2171_10010)">
<path d="M35 7.5C36.3261 7.5 37.5978 8.02678 38.5355 8.96447C39.4732 9.90215 40 11.1739 40 12.5V20H50C51.3261 20 52.5978 20.5268 53.5355 21.4645C54.4732 22.4021 55 23.6739 55 25V47.5C55 48.8261 54.4732 50.0979 53.5355 51.0355C52.5978 51.9732 51.3261 52.5 50 52.5H10C8.67392 52.5 7.40215 51.9732 6.46447 51.0355C5.52678 50.0979 5 48.8261 5 47.5V32.5C5 31.1739 5.52678 29.9021 6.46447 28.9645C7.40215 28.0268 8.67392 27.5 10 27.5H20V12.5C20 11.1739 20.5268 9.90215 21.4645 8.96447C22.4021 8.02678 23.6739 7.5 25 7.5H35ZM35 12.5H25V47.5H35V12.5ZM50 25H40V47.5H50V25ZM20 32.5H10V47.5H20V32.5Z" fill="#09244B"/>
</g>
<defs>
<clipPath id="clip0_2171_10010">
<rect width="60" height="60" fill="white"/>
</clipPath>
</defs>
</svg>
