<svg width="60" height="60" viewBox="0 0 60 60" fill="none" xmlns="http://www.w3.org/2000/svg">
<path d="M15 10C15 12.7614 12.7614 15 10 15C7.23857 15 5 12.7614 5 10C5 7.23857 7.23857 5 10 5C12.7614 5 15 7.23857 15 10Z" stroke="black" stroke-width="1.5" stroke-linecap="round" stroke-linejoin="round"/>
<path d="M5 22.5H15V55H5V22.5Z" stroke="black" stroke-width="1.5" stroke-linecap="round" stroke-linejoin="round"/>
<path d="M25 55H35V37.5C35 34.7385 37.2385 32.5 40 32.5C42.7615 32.5 45 34.7385 45 37.5V55H55V37.5C55 29.2158 48.2842 22.5 40 22.5C31.7158 22.5 25 29.2158 25 37.5V55Z" stroke="black" stroke-width="1.5" stroke-linecap="round" stroke-linejoin="round"/>
</svg>
